<?xml version="1.0" encoding="utf-8" standalone="no"?>
<!DOCTYPE svg PUBLIC "-//W3C//DTD SVG 1.1//EN"
  "http://www.w3.org/Graphics/SVG/1.1/DTD/svg11.dtd">
<!-- Created with matplotlib (https://matplotlib.org/) -->
<svg height="1008pt" version="1.1" viewBox="0 0 1008 1008" width="1008pt" xmlns="http://www.w3.org/2000/svg" xmlns:xlink="http://www.w3.org/1999/xlink">
 <defs>
  <style type="text/css">
*{stroke-linecap:butt;stroke-linejoin:round;}
  </style>
 </defs>
 <g id="figure_1">
  <g id="patch_1">
   <path d="M 0 1008 
L 1008 1008 
L 1008 0 
L 0 0 
z
" style="fill:#ffffff;"/>
  </g>
  <g id="axes_1">
   <g id="patch_2">
    <path d="M 126 897.12 
L 907.2 897.12 
L 907.2 120.96 
L 126 120.96 
z
" style="fill:#ffffff;"/>
   </g>
   <g id="PolyCollection_1">
    <defs>
     <path d="M 161.509091 -879.355248 
L 161.509091 -879.355248 
L 250.281818 -571.771771 
L 339.054545 -420.17433 
L 427.827273 -304.851327 
L 516.6 -246.671252 
L 605.372727 -177.183902 
L 694.145455 -126.542306 
L 782.918182 -110.88 
L 871.690909 -110.88 
L 871.690909 -110.88 
L 871.690909 -110.88 
L 782.918182 -110.88 
L 694.145455 -180.924261 
L 605.372727 -234.645099 
L 516.6 -296.812963 
L 427.827273 -361.509304 
L 339.054545 -474.841768 
L 250.281818 -613.35883 
L 161.509091 -879.355248 
z
" id="m3c18ecd33c" style="stroke:#539caf;stroke-opacity:0.4;"/>
    </defs>
    <g clip-path="url(#p369cad0de7)">
     <use style="fill:#539caf;fill-opacity:0.4;stroke:#539caf;stroke-opacity:0.4;" x="0" xlink:href="#m3c18ecd33c" y="1008"/>
    </g>
   </g>
   <g id="PolyCollection_2">
    <defs>
     <path d="M 161.509091 -879.355248 
L 161.509091 -879.355248 
L 250.281818 -684.835923 
L 339.054545 -653.505608 
L 427.827273 -613.433883 
L 516.6 -571.977834 
L 605.372727 -558.068401 
L 694.145455 -518.382207 
L 782.918182 -473.06443 
L 871.690909 -453.783315 
L 871.690909 -499.291726 
L 871.690909 -499.291726 
L 782.918182 -514.356869 
L 694.145455 -558.563048 
L 605.372727 -597.351919 
L 516.6 -611.540582 
L 427.827273 -650.248554 
L 339.054545 -687.290492 
L 250.281818 -718.656293 
L 161.509091 -879.355248 
z
" id="m59fb2fdf25" style="stroke:#b65332;stroke-opacity:0.4;"/>
    </defs>
    <g clip-path="url(#p369cad0de7)">
     <use style="fill:#b65332;fill-opacity:0.4;stroke:#b65332;stroke-opacity:0.4;" x="0" xlink:href="#m59fb2fdf25" y="1008"/>
    </g>
   </g>
   <g id="PolyCollection_3">
    <defs>
     <path d="M 161.509091 -879.355248 
L 161.509091 -879.355248 
L 250.281818 -684.829511 
L 339.054545 -629.838509 
L 427.827273 -564.165591 
L 516.6 -502.164279 
L 605.372727 -441.150492 
L 694.145455 -373.035774 
L 782.918182 -327.182464 
L 871.690909 -272.764108 
L 871.690909 -318.080984 
L 871.690909 -318.080984 
L 782.918182 -376.640424 
L 694.145455 -416.798796 
L 605.372727 -487.028346 
L 516.6 -544.969613 
L 427.827273 -615.406809 
L 339.054545 -675.714697 
L 250.281818 -727.148433 
L 161.509091 -879.355248 
z
" id="m0f3822e5c8" style="stroke:#5be19a;stroke-opacity:0.4;"/>
    </defs>
    <g clip-path="url(#p369cad0de7)">
     <use style="fill:#5be19a;fill-opacity:0.4;stroke:#5be19a;stroke-opacity:0.4;" x="0" xlink:href="#m0f3822e5c8" y="1008"/>
    </g>
   </g>
   <g id="PolyCollection_4">
    <defs>
     <path d="M 161.509091 -879.355248 
L 161.509091 -879.355248 
L 250.281818 -680.14593 
L 339.054545 -615.752695 
L 427.827273 -544.343556 
L 516.6 -481.754547 
L 605.372727 -419.886925 
L 694.145455 -359.924799 
L 782.918182 -301.967322 
L 871.690909 -250.741104 
L 871.690909 -289.281253 
L 871.690909 -289.281253 
L 782.918182 -347.463197 
L 694.145455 -404.177193 
L 605.372727 -465.964608 
L 516.6 -525.436801 
L 427.827273 -593.657479 
L 339.054545 -663.939003 
L 250.281818 -721.304184 
L 161.509091 -879.355248 
z
" id="m53a0a0f965" style="stroke:#ffff80;stroke-opacity:0.4;"/>
    </defs>
    <g clip-path="url(#p369cad0de7)">
     <use style="fill:#ffff80;fill-opacity:0.4;stroke:#ffff80;stroke-opacity:0.4;" x="0" xlink:href="#m53a0a0f965" y="1008"/>
    </g>
   </g>
   <g id="matplotlib.axis_1">
    <g id="xtick_1">
     <g id="line2d_1">
      <defs>
       <path d="M 0 0 
L 0 3.5 
" id="m46b1e43c20" style="stroke:#000000;stroke-width:0.8;"/>
      </defs>
      <g>
       <use style="stroke:#000000;stroke-width:0.8;" x="161.509091" xlink:href="#m46b1e43c20" y="897.12"/>
      </g>
     </g>
     <g id="text_1">
      <!-- 0 -->
      <defs>
       <path d="M 31.78125 66.40625 
Q 24.171875 66.40625 20.328125 58.90625 
Q 16.5 51.421875 16.5 36.375 
Q 16.5 21.390625 20.328125 13.890625 
Q 24.171875 6.390625 31.78125 6.390625 
Q 39.453125 6.390625 43.28125 13.890625 
Q 47.125 21.390625 47.125 36.375 
Q 47.125 51.421875 43.28125 58.90625 
Q 39.453125 66.40625 31.78125 66.40625 
z
M 31.78125 74.21875 
Q 44.046875 74.21875 50.515625 64.515625 
Q 56.984375 54.828125 56.984375 36.375 
Q 56.984375 17.96875 50.515625 8.265625 
Q 44.046875 -1.421875 31.78125 -1.421875 
Q 19.53125 -1.421875 13.0625 8.265625 
Q 6.59375 17.96875 6.59375 36.375 
Q 6.59375 54.828125 13.0625 64.515625 
Q 19.53125 74.21875 31.78125 74.21875 
z
" id="DejaVuSans-48"/>
      </defs>
      <g transform="translate(153.555966 923.116094)scale(0.25 -0.25)">
       <use xlink:href="#DejaVuSans-48"/>
      </g>
     </g>
    </g>
    <g id="xtick_2">
     <g id="line2d_2">
      <g>
       <use style="stroke:#000000;stroke-width:0.8;" x="250.281818" xlink:href="#m46b1e43c20" y="897.12"/>
      </g>
     </g>
     <g id="text_2">
      <!-- 5 -->
      <defs>
       <path d="M 10.796875 72.90625 
L 49.515625 72.90625 
L 49.515625 64.59375 
L 19.828125 64.59375 
L 19.828125 46.734375 
Q 21.96875 47.46875 24.109375 47.828125 
Q 26.265625 48.1875 28.421875 48.1875 
Q 40.625 48.1875 47.75 41.5 
Q 54.890625 34.8125 54.890625 23.390625 
Q 54.890625 11.625 47.5625 5.09375 
Q 40.234375 -1.421875 26.90625 -1.421875 
Q 22.3125 -1.421875 17.546875 -0.640625 
Q 12.796875 0.140625 7.71875 1.703125 
L 7.71875 11.625 
Q 12.109375 9.234375 16.796875 8.0625 
Q 21.484375 6.890625 26.703125 6.890625 
Q 35.15625 6.890625 40.078125 11.328125 
Q 45.015625 15.765625 45.015625 23.390625 
Q 45.015625 31 40.078125 35.4375 
Q 35.15625 39.890625 26.703125 39.890625 
Q 22.75 39.890625 18.8125 39.015625 
Q 14.890625 38.140625 10.796875 36.28125 
z
" id="DejaVuSans-53"/>
      </defs>
      <g transform="translate(242.328693 923.116094)scale(0.25 -0.25)">
       <use xlink:href="#DejaVuSans-53"/>
      </g>
     </g>
    </g>
    <g id="xtick_3">
     <g id="line2d_3">
      <g>
       <use style="stroke:#000000;stroke-width:0.8;" x="339.054545" xlink:href="#m46b1e43c20" y="897.12"/>
      </g>
     </g>
     <g id="text_3">
      <!-- 10 -->
      <defs>
       <path d="M 12.40625 8.296875 
L 28.515625 8.296875 
L 28.515625 63.921875 
L 10.984375 60.40625 
L 10.984375 69.390625 
L 28.421875 72.90625 
L 38.28125 72.90625 
L 38.28125 8.296875 
L 54.390625 8.296875 
L 54.390625 0 
L 12.40625 0 
z
" id="DejaVuSans-49"/>
      </defs>
      <g transform="translate(323.148295 923.116094)scale(0.25 -0.25)">
       <use xlink:href="#DejaVuSans-49"/>
       <use x="63.623047" xlink:href="#DejaVuSans-48"/>
      </g>
     </g>
    </g>
    <g id="xtick_4">
     <g id="line2d_4">
      <g>
       <use style="stroke:#000000;stroke-width:0.8;" x="427.827273" xlink:href="#m46b1e43c20" y="897.12"/>
      </g>
     </g>
     <g id="text_4">
      <!-- 15 -->
      <g transform="translate(411.921023 923.116094)scale(0.25 -0.25)">
       <use xlink:href="#DejaVuSans-49"/>
       <use x="63.623047" xlink:href="#DejaVuSans-53"/>
      </g>
     </g>
    </g>
    <g id="xtick_5">
     <g id="line2d_5">
      <g>
       <use style="stroke:#000000;stroke-width:0.8;" x="516.6" xlink:href="#m46b1e43c20" y="897.12"/>
      </g>
     </g>
     <g id="text_5">
      <!-- 20 -->
      <defs>
       <path d="M 19.1875 8.296875 
L 53.609375 8.296875 
L 53.609375 0 
L 7.328125 0 
L 7.328125 8.296875 
Q 12.9375 14.109375 22.625 23.890625 
Q 32.328125 33.6875 34.8125 36.53125 
Q 39.546875 41.84375 41.421875 45.53125 
Q 43.3125 49.21875 43.3125 52.78125 
Q 43.3125 58.59375 39.234375 62.25 
Q 35.15625 65.921875 28.609375 65.921875 
Q 23.96875 65.921875 18.8125 64.3125 
Q 13.671875 62.703125 7.8125 59.421875 
L 7.8125 69.390625 
Q 13.765625 71.78125 18.9375 73 
Q 24.125 74.21875 28.421875 74.21875 
Q 39.75 74.21875 46.484375 68.546875 
Q 53.21875 62.890625 53.21875 53.421875 
Q 53.21875 48.921875 51.53125 44.890625 
Q 49.859375 40.875 45.40625 35.40625 
Q 44.1875 33.984375 37.640625 27.21875 
Q 31.109375 20.453125 19.1875 8.296875 
z
" id="DejaVuSans-50"/>
      </defs>
      <g transform="translate(500.69375 923.116094)scale(0.25 -0.25)">
       <use xlink:href="#DejaVuSans-50"/>
       <use x="63.623047" xlink:href="#DejaVuSans-48"/>
      </g>
     </g>
    </g>
    <g id="xtick_6">
     <g id="line2d_6">
      <g>
       <use style="stroke:#000000;stroke-width:0.8;" x="605.372727" xlink:href="#m46b1e43c20" y="897.12"/>
      </g>
     </g>
     <g id="text_6">
      <!-- 25 -->
      <g transform="translate(589.466477 923.116094)scale(0.25 -0.25)">
       <use xlink:href="#DejaVuSans-50"/>
       <use x="63.623047" xlink:href="#DejaVuSans-53"/>
      </g>
     </g>
    </g>
    <g id="xtick_7">
     <g id="line2d_7">
      <g>
       <use style="stroke:#000000;stroke-width:0.8;" x="694.145455" xlink:href="#m46b1e43c20" y="897.12"/>
      </g>
     </g>
     <g id="text_7">
      <!-- 30 -->
      <defs>
       <path d="M 40.578125 39.3125 
Q 47.65625 37.796875 51.625 33 
Q 55.609375 28.21875 55.609375 21.1875 
Q 55.609375 10.40625 48.1875 4.484375 
Q 40.765625 -1.421875 27.09375 -1.421875 
Q 22.515625 -1.421875 17.65625 -0.515625 
Q 12.796875 0.390625 7.625 2.203125 
L 7.625 11.71875 
Q 11.71875 9.328125 16.59375 8.109375 
Q 21.484375 6.890625 26.8125 6.890625 
Q 36.078125 6.890625 40.9375 10.546875 
Q 45.796875 14.203125 45.796875 21.1875 
Q 45.796875 27.640625 41.28125 31.265625 
Q 36.765625 34.90625 28.71875 34.90625 
L 20.21875 34.90625 
L 20.21875 43.015625 
L 29.109375 43.015625 
Q 36.375 43.015625 40.234375 45.921875 
Q 44.09375 48.828125 44.09375 54.296875 
Q 44.09375 59.90625 40.109375 62.90625 
Q 36.140625 65.921875 28.71875 65.921875 
Q 24.65625 65.921875 20.015625 65.03125 
Q 15.375 64.15625 9.8125 62.3125 
L 9.8125 71.09375 
Q 15.4375 72.65625 20.34375 73.4375 
Q 25.25 74.21875 29.59375 74.21875 
Q 40.828125 74.21875 47.359375 69.109375 
Q 53.90625 64.015625 53.90625 55.328125 
Q 53.90625 49.265625 50.4375 45.09375 
Q 46.96875 40.921875 40.578125 39.3125 
z
" id="DejaVuSans-51"/>
      </defs>
      <g transform="translate(678.239205 923.116094)scale(0.25 -0.25)">
       <use xlink:href="#DejaVuSans-51"/>
       <use x="63.623047" xlink:href="#DejaVuSans-48"/>
      </g>
     </g>
    </g>
    <g id="xtick_8">
     <g id="line2d_8">
      <g>
       <use style="stroke:#000000;stroke-width:0.8;" x="782.918182" xlink:href="#m46b1e43c20" y="897.12"/>
      </g>
     </g>
     <g id="text_8">
      <!-- 35 -->
      <g transform="translate(767.011932 923.116094)scale(0.25 -0.25)">
       <use xlink:href="#DejaVuSans-51"/>
       <use x="63.623047" xlink:href="#DejaVuSans-53"/>
      </g>
     </g>
    </g>
    <g id="xtick_9">
     <g id="line2d_9">
      <g>
       <use style="stroke:#000000;stroke-width:0.8;" x="871.690909" xlink:href="#m46b1e43c20" y="897.12"/>
      </g>
     </g>
     <g id="text_9">
      <!-- 40 -->
      <defs>
       <path d="M 37.796875 64.3125 
L 12.890625 25.390625 
L 37.796875 25.390625 
z
M 35.203125 72.90625 
L 47.609375 72.90625 
L 47.609375 25.390625 
L 58.015625 25.390625 
L 58.015625 17.1875 
L 47.609375 17.1875 
L 47.609375 0 
L 37.796875 0 
L 37.796875 17.1875 
L 4.890625 17.1875 
L 4.890625 26.703125 
z
" id="DejaVuSans-52"/>
      </defs>
      <g transform="translate(855.784659 923.116094)scale(0.25 -0.25)">
       <use xlink:href="#DejaVuSans-52"/>
       <use x="63.623047" xlink:href="#DejaVuSans-48"/>
      </g>
     </g>
    </g>
    <g id="text_10">
     <!-- percentage of missing -->
     <defs>
      <path d="M 18.109375 8.203125 
L 18.109375 -20.796875 
L 9.078125 -20.796875 
L 9.078125 54.6875 
L 18.109375 54.6875 
L 18.109375 46.390625 
Q 20.953125 51.265625 25.265625 53.625 
Q 29.59375 56 35.59375 56 
Q 45.5625 56 51.78125 48.09375 
Q 58.015625 40.1875 58.015625 27.296875 
Q 58.015625 14.40625 51.78125 6.484375 
Q 45.5625 -1.421875 35.59375 -1.421875 
Q 29.59375 -1.421875 25.265625 0.953125 
Q 20.953125 3.328125 18.109375 8.203125 
z
M 48.6875 27.296875 
Q 48.6875 37.203125 44.609375 42.84375 
Q 40.53125 48.484375 33.40625 48.484375 
Q 26.265625 48.484375 22.1875 42.84375 
Q 18.109375 37.203125 18.109375 27.296875 
Q 18.109375 17.390625 22.1875 11.75 
Q 26.265625 6.109375 33.40625 6.109375 
Q 40.53125 6.109375 44.609375 11.75 
Q 48.6875 17.390625 48.6875 27.296875 
z
" id="DejaVuSans-112"/>
      <path d="M 56.203125 29.59375 
L 56.203125 25.203125 
L 14.890625 25.203125 
Q 15.484375 15.921875 20.484375 11.0625 
Q 25.484375 6.203125 34.421875 6.203125 
Q 39.59375 6.203125 44.453125 7.46875 
Q 49.3125 8.734375 54.109375 11.28125 
L 54.109375 2.78125 
Q 49.265625 0.734375 44.1875 -0.34375 
Q 39.109375 -1.421875 33.890625 -1.421875 
Q 20.796875 -1.421875 13.15625 6.1875 
Q 5.515625 13.8125 5.515625 26.8125 
Q 5.515625 40.234375 12.765625 48.109375 
Q 20.015625 56 32.328125 56 
Q 43.359375 56 49.78125 48.890625 
Q 56.203125 41.796875 56.203125 29.59375 
z
M 47.21875 32.234375 
Q 47.125 39.59375 43.09375 43.984375 
Q 39.0625 48.390625 32.421875 48.390625 
Q 24.90625 48.390625 20.390625 44.140625 
Q 15.875 39.890625 15.1875 32.171875 
z
" id="DejaVuSans-101"/>
      <path d="M 41.109375 46.296875 
Q 39.59375 47.171875 37.8125 47.578125 
Q 36.03125 48 33.890625 48 
Q 26.265625 48 22.1875 43.046875 
Q 18.109375 38.09375 18.109375 28.8125 
L 18.109375 0 
L 9.078125 0 
L 9.078125 54.6875 
L 18.109375 54.6875 
L 18.109375 46.1875 
Q 20.953125 51.171875 25.484375 53.578125 
Q 30.03125 56 36.53125 56 
Q 37.453125 56 38.578125 55.875 
Q 39.703125 55.765625 41.0625 55.515625 
z
" id="DejaVuSans-114"/>
      <path d="M 48.78125 52.59375 
L 48.78125 44.1875 
Q 44.96875 46.296875 41.140625 47.34375 
Q 37.3125 48.390625 33.40625 48.390625 
Q 24.65625 48.390625 19.8125 42.84375 
Q 14.984375 37.3125 14.984375 27.296875 
Q 14.984375 17.28125 19.8125 11.734375 
Q 24.65625 6.203125 33.40625 6.203125 
Q 37.3125 6.203125 41.140625 7.25 
Q 44.96875 8.296875 48.78125 10.40625 
L 48.78125 2.09375 
Q 45.015625 0.34375 40.984375 -0.53125 
Q 36.96875 -1.421875 32.421875 -1.421875 
Q 20.0625 -1.421875 12.78125 6.34375 
Q 5.515625 14.109375 5.515625 27.296875 
Q 5.515625 40.671875 12.859375 48.328125 
Q 20.21875 56 33.015625 56 
Q 37.15625 56 41.109375 55.140625 
Q 45.0625 54.296875 48.78125 52.59375 
z
" id="DejaVuSans-99"/>
      <path d="M 54.890625 33.015625 
L 54.890625 0 
L 45.90625 0 
L 45.90625 32.71875 
Q 45.90625 40.484375 42.875 44.328125 
Q 39.84375 48.1875 33.796875 48.1875 
Q 26.515625 48.1875 22.3125 43.546875 
Q 18.109375 38.921875 18.109375 30.90625 
L 18.109375 0 
L 9.078125 0 
L 9.078125 54.6875 
L 18.109375 54.6875 
L 18.109375 46.1875 
Q 21.34375 51.125 25.703125 53.5625 
Q 30.078125 56 35.796875 56 
Q 45.21875 56 50.046875 50.171875 
Q 54.890625 44.34375 54.890625 33.015625 
z
" id="DejaVuSans-110"/>
      <path d="M 18.3125 70.21875 
L 18.3125 54.6875 
L 36.8125 54.6875 
L 36.8125 47.703125 
L 18.3125 47.703125 
L 18.3125 18.015625 
Q 18.3125 11.328125 20.140625 9.421875 
Q 21.96875 7.515625 27.59375 7.515625 
L 36.8125 7.515625 
L 36.8125 0 
L 27.59375 0 
Q 17.1875 0 13.234375 3.875 
Q 9.28125 7.765625 9.28125 18.015625 
L 9.28125 47.703125 
L 2.6875 47.703125 
L 2.6875 54.6875 
L 9.28125 54.6875 
L 9.28125 70.21875 
z
" id="DejaVuSans-116"/>
      <path d="M 34.28125 27.484375 
Q 23.390625 27.484375 19.1875 25 
Q 14.984375 22.515625 14.984375 16.5 
Q 14.984375 11.71875 18.140625 8.90625 
Q 21.296875 6.109375 26.703125 6.109375 
Q 34.1875 6.109375 38.703125 11.40625 
Q 43.21875 16.703125 43.21875 25.484375 
L 43.21875 27.484375 
z
M 52.203125 31.203125 
L 52.203125 0 
L 43.21875 0 
L 43.21875 8.296875 
Q 40.140625 3.328125 35.546875 0.953125 
Q 30.953125 -1.421875 24.3125 -1.421875 
Q 15.921875 -1.421875 10.953125 3.296875 
Q 6 8.015625 6 15.921875 
Q 6 25.140625 12.171875 29.828125 
Q 18.359375 34.515625 30.609375 34.515625 
L 43.21875 34.515625 
L 43.21875 35.40625 
Q 43.21875 41.609375 39.140625 45 
Q 35.0625 48.390625 27.6875 48.390625 
Q 23 48.390625 18.546875 47.265625 
Q 14.109375 46.140625 10.015625 43.890625 
L 10.015625 52.203125 
Q 14.9375 54.109375 19.578125 55.046875 
Q 24.21875 56 28.609375 56 
Q 40.484375 56 46.34375 49.84375 
Q 52.203125 43.703125 52.203125 31.203125 
z
" id="DejaVuSans-97"/>
      <path d="M 45.40625 27.984375 
Q 45.40625 37.75 41.375 43.109375 
Q 37.359375 48.484375 30.078125 48.484375 
Q 22.859375 48.484375 18.828125 43.109375 
Q 14.796875 37.75 14.796875 27.984375 
Q 14.796875 18.265625 18.828125 12.890625 
Q 22.859375 7.515625 30.078125 7.515625 
Q 37.359375 7.515625 41.375 12.890625 
Q 45.40625 18.265625 45.40625 27.984375 
z
M 54.390625 6.78125 
Q 54.390625 -7.171875 48.1875 -13.984375 
Q 42 -20.796875 29.203125 -20.796875 
Q 24.46875 -20.796875 20.265625 -20.09375 
Q 16.0625 -19.390625 12.109375 -17.921875 
L 12.109375 -9.1875 
Q 16.0625 -11.328125 19.921875 -12.34375 
Q 23.78125 -13.375 27.78125 -13.375 
Q 36.625 -13.375 41.015625 -8.765625 
Q 45.40625 -4.15625 45.40625 5.171875 
L 45.40625 9.625 
Q 42.625 4.78125 38.28125 2.390625 
Q 33.9375 0 27.875 0 
Q 17.828125 0 11.671875 7.65625 
Q 5.515625 15.328125 5.515625 27.984375 
Q 5.515625 40.671875 11.671875 48.328125 
Q 17.828125 56 27.875 56 
Q 33.9375 56 38.28125 53.609375 
Q 42.625 51.21875 45.40625 46.390625 
L 45.40625 54.6875 
L 54.390625 54.6875 
z
" id="DejaVuSans-103"/>
      <path id="DejaVuSans-32"/>
      <path d="M 30.609375 48.390625 
Q 23.390625 48.390625 19.1875 42.75 
Q 14.984375 37.109375 14.984375 27.296875 
Q 14.984375 17.484375 19.15625 11.84375 
Q 23.34375 6.203125 30.609375 6.203125 
Q 37.796875 6.203125 41.984375 11.859375 
Q 46.1875 17.53125 46.1875 27.296875 
Q 46.1875 37.015625 41.984375 42.703125 
Q 37.796875 48.390625 30.609375 48.390625 
z
M 30.609375 56 
Q 42.328125 56 49.015625 48.375 
Q 55.71875 40.765625 55.71875 27.296875 
Q 55.71875 13.875 49.015625 6.21875 
Q 42.328125 -1.421875 30.609375 -1.421875 
Q 18.84375 -1.421875 12.171875 6.21875 
Q 5.515625 13.875 5.515625 27.296875 
Q 5.515625 40.765625 12.171875 48.375 
Q 18.84375 56 30.609375 56 
z
" id="DejaVuSans-111"/>
      <path d="M 37.109375 75.984375 
L 37.109375 68.5 
L 28.515625 68.5 
Q 23.6875 68.5 21.796875 66.546875 
Q 19.921875 64.59375 19.921875 59.515625 
L 19.921875 54.6875 
L 34.71875 54.6875 
L 34.71875 47.703125 
L 19.921875 47.703125 
L 19.921875 0 
L 10.890625 0 
L 10.890625 47.703125 
L 2.296875 47.703125 
L 2.296875 54.6875 
L 10.890625 54.6875 
L 10.890625 58.5 
Q 10.890625 67.625 15.140625 71.796875 
Q 19.390625 75.984375 28.609375 75.984375 
z
" id="DejaVuSans-102"/>
      <path d="M 52 44.1875 
Q 55.375 50.25 60.0625 53.125 
Q 64.75 56 71.09375 56 
Q 79.640625 56 84.28125 50.015625 
Q 88.921875 44.046875 88.921875 33.015625 
L 88.921875 0 
L 79.890625 0 
L 79.890625 32.71875 
Q 79.890625 40.578125 77.09375 44.375 
Q 74.3125 48.1875 68.609375 48.1875 
Q 61.625 48.1875 57.5625 43.546875 
Q 53.515625 38.921875 53.515625 30.90625 
L 53.515625 0 
L 44.484375 0 
L 44.484375 32.71875 
Q 44.484375 40.625 41.703125 44.40625 
Q 38.921875 48.1875 33.109375 48.1875 
Q 26.21875 48.1875 22.15625 43.53125 
Q 18.109375 38.875 18.109375 30.90625 
L 18.109375 0 
L 9.078125 0 
L 9.078125 54.6875 
L 18.109375 54.6875 
L 18.109375 46.1875 
Q 21.1875 51.21875 25.484375 53.609375 
Q 29.78125 56 35.6875 56 
Q 41.65625 56 45.828125 52.96875 
Q 50 49.953125 52 44.1875 
z
" id="DejaVuSans-109"/>
      <path d="M 9.421875 54.6875 
L 18.40625 54.6875 
L 18.40625 0 
L 9.421875 0 
z
M 9.421875 75.984375 
L 18.40625 75.984375 
L 18.40625 64.59375 
L 9.421875 64.59375 
z
" id="DejaVuSans-105"/>
      <path d="M 44.28125 53.078125 
L 44.28125 44.578125 
Q 40.484375 46.53125 36.375 47.5 
Q 32.28125 48.484375 27.875 48.484375 
Q 21.1875 48.484375 17.84375 46.4375 
Q 14.5 44.390625 14.5 40.28125 
Q 14.5 37.15625 16.890625 35.375 
Q 19.28125 33.59375 26.515625 31.984375 
L 29.59375 31.296875 
Q 39.15625 29.25 43.1875 25.515625 
Q 47.21875 21.78125 47.21875 15.09375 
Q 47.21875 7.46875 41.1875 3.015625 
Q 35.15625 -1.421875 24.609375 -1.421875 
Q 20.21875 -1.421875 15.453125 -0.5625 
Q 10.6875 0.296875 5.421875 2 
L 5.421875 11.28125 
Q 10.40625 8.6875 15.234375 7.390625 
Q 20.0625 6.109375 24.8125 6.109375 
Q 31.15625 6.109375 34.5625 8.28125 
Q 37.984375 10.453125 37.984375 14.40625 
Q 37.984375 18.0625 35.515625 20.015625 
Q 33.0625 21.96875 24.703125 23.78125 
L 21.578125 24.515625 
Q 13.234375 26.265625 9.515625 29.90625 
Q 5.8125 33.546875 5.8125 39.890625 
Q 5.8125 47.609375 11.28125 51.796875 
Q 16.75 56 26.8125 56 
Q 31.78125 56 36.171875 55.265625 
Q 40.578125 54.546875 44.28125 53.078125 
z
" id="DejaVuSans-115"/>
     </defs>
     <g transform="translate(377.168359 951.311406)scale(0.25 -0.25)">
      <use xlink:href="#DejaVuSans-112"/>
      <use x="63.476562" xlink:href="#DejaVuSans-101"/>
      <use x="125" xlink:href="#DejaVuSans-114"/>
      <use x="166.082031" xlink:href="#DejaVuSans-99"/>
      <use x="221.0625" xlink:href="#DejaVuSans-101"/>
      <use x="282.585938" xlink:href="#DejaVuSans-110"/>
      <use x="345.964844" xlink:href="#DejaVuSans-116"/>
      <use x="385.173828" xlink:href="#DejaVuSans-97"/>
      <use x="446.453125" xlink:href="#DejaVuSans-103"/>
      <use x="509.929688" xlink:href="#DejaVuSans-101"/>
      <use x="571.453125" xlink:href="#DejaVuSans-32"/>
      <use x="603.240234" xlink:href="#DejaVuSans-111"/>
      <use x="664.421875" xlink:href="#DejaVuSans-102"/>
      <use x="699.626953" xlink:href="#DejaVuSans-32"/>
      <use x="731.414062" xlink:href="#DejaVuSans-109"/>
      <use x="828.826172" xlink:href="#DejaVuSans-105"/>
      <use x="856.609375" xlink:href="#DejaVuSans-115"/>
      <use x="908.708984" xlink:href="#DejaVuSans-115"/>
      <use x="960.808594" xlink:href="#DejaVuSans-105"/>
      <use x="988.591797" xlink:href="#DejaVuSans-110"/>
      <use x="1051.970703" xlink:href="#DejaVuSans-103"/>
     </g>
    </g>
   </g>
   <g id="matplotlib.axis_2">
    <g id="ytick_1">
     <g id="line2d_10">
      <defs>
       <path d="M 0 0 
L -3.5 0 
" id="m728acaa2c1" style="stroke:#000000;stroke-width:0.8;"/>
      </defs>
      <g>
       <use style="stroke:#000000;stroke-width:0.8;" x="126" xlink:href="#m728acaa2c1" y="897.12"/>
      </g>
     </g>
     <g id="text_11">
      <!-- 0.0 -->
      <defs>
       <path d="M 10.6875 12.40625 
L 21 12.40625 
L 21 0 
L 10.6875 0 
z
" id="DejaVuSans-46"/>
      </defs>
      <g transform="translate(79.242188 906.618047)scale(0.25 -0.25)">
       <use xlink:href="#DejaVuSans-48"/>
       <use x="63.623047" xlink:href="#DejaVuSans-46"/>
       <use x="95.410156" xlink:href="#DejaVuSans-48"/>
      </g>
     </g>
    </g>
    <g id="ytick_2">
     <g id="line2d_11">
      <g>
       <use style="stroke:#000000;stroke-width:0.8;" x="126" xlink:href="#m728acaa2c1" y="743.42495"/>
      </g>
     </g>
     <g id="text_12">
      <!-- 0.2 -->
      <g transform="translate(79.242188 752.922997)scale(0.25 -0.25)">
       <use xlink:href="#DejaVuSans-48"/>
       <use x="63.623047" xlink:href="#DejaVuSans-46"/>
       <use x="95.410156" xlink:href="#DejaVuSans-50"/>
      </g>
     </g>
    </g>
    <g id="ytick_3">
     <g id="line2d_12">
      <g>
       <use style="stroke:#000000;stroke-width:0.8;" x="126" xlink:href="#m728acaa2c1" y="589.729901"/>
      </g>
     </g>
     <g id="text_13">
      <!-- 0.4 -->
      <g transform="translate(79.242188 599.227948)scale(0.25 -0.25)">
       <use xlink:href="#DejaVuSans-48"/>
       <use x="63.623047" xlink:href="#DejaVuSans-46"/>
       <use x="95.410156" xlink:href="#DejaVuSans-52"/>
      </g>
     </g>
    </g>
    <g id="ytick_4">
     <g id="line2d_13">
      <g>
       <use style="stroke:#000000;stroke-width:0.8;" x="126" xlink:href="#m728acaa2c1" y="436.034851"/>
      </g>
     </g>
     <g id="text_14">
      <!-- 0.6 -->
      <defs>
       <path d="M 33.015625 40.375 
Q 26.375 40.375 22.484375 35.828125 
Q 18.609375 31.296875 18.609375 23.390625 
Q 18.609375 15.53125 22.484375 10.953125 
Q 26.375 6.390625 33.015625 6.390625 
Q 39.65625 6.390625 43.53125 10.953125 
Q 47.40625 15.53125 47.40625 23.390625 
Q 47.40625 31.296875 43.53125 35.828125 
Q 39.65625 40.375 33.015625 40.375 
z
M 52.59375 71.296875 
L 52.59375 62.3125 
Q 48.875 64.0625 45.09375 64.984375 
Q 41.3125 65.921875 37.59375 65.921875 
Q 27.828125 65.921875 22.671875 59.328125 
Q 17.53125 52.734375 16.796875 39.40625 
Q 19.671875 43.65625 24.015625 45.921875 
Q 28.375 48.1875 33.59375 48.1875 
Q 44.578125 48.1875 50.953125 41.515625 
Q 57.328125 34.859375 57.328125 23.390625 
Q 57.328125 12.15625 50.6875 5.359375 
Q 44.046875 -1.421875 33.015625 -1.421875 
Q 20.359375 -1.421875 13.671875 8.265625 
Q 6.984375 17.96875 6.984375 36.375 
Q 6.984375 53.65625 15.1875 63.9375 
Q 23.390625 74.21875 37.203125 74.21875 
Q 40.921875 74.21875 44.703125 73.484375 
Q 48.484375 72.75 52.59375 71.296875 
z
" id="DejaVuSans-54"/>
      </defs>
      <g transform="translate(79.242188 445.532898)scale(0.25 -0.25)">
       <use xlink:href="#DejaVuSans-48"/>
       <use x="63.623047" xlink:href="#DejaVuSans-46"/>
       <use x="95.410156" xlink:href="#DejaVuSans-54"/>
      </g>
     </g>
    </g>
    <g id="ytick_5">
     <g id="line2d_14">
      <g>
       <use style="stroke:#000000;stroke-width:0.8;" x="126" xlink:href="#m728acaa2c1" y="282.339802"/>
      </g>
     </g>
     <g id="text_15">
      <!-- 0.8 -->
      <defs>
       <path d="M 31.78125 34.625 
Q 24.75 34.625 20.71875 30.859375 
Q 16.703125 27.09375 16.703125 20.515625 
Q 16.703125 13.921875 20.71875 10.15625 
Q 24.75 6.390625 31.78125 6.390625 
Q 38.8125 6.390625 42.859375 10.171875 
Q 46.921875 13.96875 46.921875 20.515625 
Q 46.921875 27.09375 42.890625 30.859375 
Q 38.875 34.625 31.78125 34.625 
z
M 21.921875 38.8125 
Q 15.578125 40.375 12.03125 44.71875 
Q 8.5 49.078125 8.5 55.328125 
Q 8.5 64.0625 14.71875 69.140625 
Q 20.953125 74.21875 31.78125 74.21875 
Q 42.671875 74.21875 48.875 69.140625 
Q 55.078125 64.0625 55.078125 55.328125 
Q 55.078125 49.078125 51.53125 44.71875 
Q 48 40.375 41.703125 38.8125 
Q 48.828125 37.15625 52.796875 32.3125 
Q 56.78125 27.484375 56.78125 20.515625 
Q 56.78125 9.90625 50.3125 4.234375 
Q 43.84375 -1.421875 31.78125 -1.421875 
Q 19.734375 -1.421875 13.25 4.234375 
Q 6.78125 9.90625 6.78125 20.515625 
Q 6.78125 27.484375 10.78125 32.3125 
Q 14.796875 37.15625 21.921875 38.8125 
z
M 18.3125 54.390625 
Q 18.3125 48.734375 21.84375 45.5625 
Q 25.390625 42.390625 31.78125 42.390625 
Q 38.140625 42.390625 41.71875 45.5625 
Q 45.3125 48.734375 45.3125 54.390625 
Q 45.3125 60.0625 41.71875 63.234375 
Q 38.140625 66.40625 31.78125 66.40625 
Q 25.390625 66.40625 21.84375 63.234375 
Q 18.3125 60.0625 18.3125 54.390625 
z
" id="DejaVuSans-56"/>
      </defs>
      <g transform="translate(79.242188 291.837849)scale(0.25 -0.25)">
       <use xlink:href="#DejaVuSans-48"/>
       <use x="63.623047" xlink:href="#DejaVuSans-46"/>
       <use x="95.410156" xlink:href="#DejaVuSans-56"/>
      </g>
     </g>
    </g>
    <g id="ytick_6">
     <g id="line2d_15">
      <g>
       <use style="stroke:#000000;stroke-width:0.8;" x="126" xlink:href="#m728acaa2c1" y="128.644752"/>
      </g>
     </g>
     <g id="text_16">
      <!-- 1.0 -->
      <g transform="translate(79.242188 138.142799)scale(0.25 -0.25)">
       <use xlink:href="#DejaVuSans-49"/>
       <use x="63.623047" xlink:href="#DejaVuSans-46"/>
       <use x="95.410156" xlink:href="#DejaVuSans-48"/>
      </g>
     </g>
    </g>
    <g id="text_17">
     <!-- Effectiveness - Missing to Ideal -->
     <defs>
      <path d="M 9.8125 72.90625 
L 55.90625 72.90625 
L 55.90625 64.59375 
L 19.671875 64.59375 
L 19.671875 43.015625 
L 54.390625 43.015625 
L 54.390625 34.71875 
L 19.671875 34.71875 
L 19.671875 8.296875 
L 56.78125 8.296875 
L 56.78125 0 
L 9.8125 0 
z
" id="DejaVuSans-69"/>
      <path d="M 2.984375 54.6875 
L 12.5 54.6875 
L 29.59375 8.796875 
L 46.6875 54.6875 
L 56.203125 54.6875 
L 35.6875 0 
L 23.484375 0 
z
" id="DejaVuSans-118"/>
      <path d="M 4.890625 31.390625 
L 31.203125 31.390625 
L 31.203125 23.390625 
L 4.890625 23.390625 
z
" id="DejaVuSans-45"/>
      <path d="M 9.8125 72.90625 
L 24.515625 72.90625 
L 43.109375 23.296875 
L 61.8125 72.90625 
L 76.515625 72.90625 
L 76.515625 0 
L 66.890625 0 
L 66.890625 64.015625 
L 48.09375 14.015625 
L 38.1875 14.015625 
L 19.390625 64.015625 
L 19.390625 0 
L 9.8125 0 
z
" id="DejaVuSans-77"/>
      <path d="M 9.8125 72.90625 
L 19.671875 72.90625 
L 19.671875 0 
L 9.8125 0 
z
" id="DejaVuSans-73"/>
      <path d="M 45.40625 46.390625 
L 45.40625 75.984375 
L 54.390625 75.984375 
L 54.390625 0 
L 45.40625 0 
L 45.40625 8.203125 
Q 42.578125 3.328125 38.25 0.953125 
Q 33.9375 -1.421875 27.875 -1.421875 
Q 17.96875 -1.421875 11.734375 6.484375 
Q 5.515625 14.40625 5.515625 27.296875 
Q 5.515625 40.1875 11.734375 48.09375 
Q 17.96875 56 27.875 56 
Q 33.9375 56 38.25 53.625 
Q 42.578125 51.265625 45.40625 46.390625 
z
M 14.796875 27.296875 
Q 14.796875 17.390625 18.875 11.75 
Q 22.953125 6.109375 30.078125 6.109375 
Q 37.203125 6.109375 41.296875 11.75 
Q 45.40625 17.390625 45.40625 27.296875 
Q 45.40625 37.203125 41.296875 42.84375 
Q 37.203125 48.484375 30.078125 48.484375 
Q 22.953125 48.484375 18.875 42.84375 
Q 14.796875 37.203125 14.796875 27.296875 
z
" id="DejaVuSans-100"/>
      <path d="M 9.421875 75.984375 
L 18.40625 75.984375 
L 18.40625 0 
L 9.421875 0 
z
" id="DejaVuSans-108"/>
     </defs>
     <g transform="translate(70.042969 702.411094)rotate(-90)scale(0.25 -0.25)">
      <use xlink:href="#DejaVuSans-69"/>
      <use x="63.183594" xlink:href="#DejaVuSans-102"/>
      <use x="98.388672" xlink:href="#DejaVuSans-102"/>
      <use x="133.59375" xlink:href="#DejaVuSans-101"/>
      <use x="195.117188" xlink:href="#DejaVuSans-99"/>
      <use x="250.097656" xlink:href="#DejaVuSans-116"/>
      <use x="289.306641" xlink:href="#DejaVuSans-105"/>
      <use x="317.089844" xlink:href="#DejaVuSans-118"/>
      <use x="376.269531" xlink:href="#DejaVuSans-101"/>
      <use x="437.792969" xlink:href="#DejaVuSans-110"/>
      <use x="501.171875" xlink:href="#DejaVuSans-101"/>
      <use x="562.695312" xlink:href="#DejaVuSans-115"/>
      <use x="614.794922" xlink:href="#DejaVuSans-115"/>
      <use x="666.894531" xlink:href="#DejaVuSans-32"/>
      <use x="698.681641" xlink:href="#DejaVuSans-45"/>
      <use x="734.765625" xlink:href="#DejaVuSans-32"/>
      <use x="766.552734" xlink:href="#DejaVuSans-77"/>
      <use x="852.832031" xlink:href="#DejaVuSans-105"/>
      <use x="880.615234" xlink:href="#DejaVuSans-115"/>
      <use x="932.714844" xlink:href="#DejaVuSans-115"/>
      <use x="984.814453" xlink:href="#DejaVuSans-105"/>
      <use x="1012.597656" xlink:href="#DejaVuSans-110"/>
      <use x="1075.976562" xlink:href="#DejaVuSans-103"/>
      <use x="1139.453125" xlink:href="#DejaVuSans-32"/>
      <use x="1171.240234" xlink:href="#DejaVuSans-116"/>
      <use x="1210.449219" xlink:href="#DejaVuSans-111"/>
      <use x="1271.630859" xlink:href="#DejaVuSans-32"/>
      <use x="1303.417969" xlink:href="#DejaVuSans-73"/>
      <use x="1332.910156" xlink:href="#DejaVuSans-100"/>
      <use x="1396.386719" xlink:href="#DejaVuSans-101"/>
      <use x="1457.910156" xlink:href="#DejaVuSans-97"/>
      <use x="1519.189453" xlink:href="#DejaVuSans-108"/>
     </g>
    </g>
   </g>
   <g id="line2d_16">
    <path clip-path="url(#p369cad0de7)" d="M 161.509091 128.644752 
L 250.281818 415.434699 
L 339.054545 560.491951 
L 427.827273 674.819685 
L 516.6 736.257892 
L 605.372727 802.085499 
L 694.145455 854.266717 
L 782.918182 897.12 
L 871.690909 897.12 
" style="fill:none;stroke:#539caf;stroke-dasharray:12.8,3.2,2,3.2;stroke-dashoffset:0;stroke-width:2;"/>
    <defs>
     <path d="M -6 6 
L 6 -6 
M -6 -6 
L 6 6 
" id="m1e4d2ea9bc" style="stroke:#539caf;"/>
    </defs>
    <g clip-path="url(#p369cad0de7)">
     <use style="fill:#539caf;stroke:#539caf;" x="161.509091" xlink:href="#m1e4d2ea9bc" y="128.644752"/>
     <use style="fill:#539caf;stroke:#539caf;" x="250.281818" xlink:href="#m1e4d2ea9bc" y="415.434699"/>
     <use style="fill:#539caf;stroke:#539caf;" x="339.054545" xlink:href="#m1e4d2ea9bc" y="560.491951"/>
     <use style="fill:#539caf;stroke:#539caf;" x="427.827273" xlink:href="#m1e4d2ea9bc" y="674.819685"/>
     <use style="fill:#539caf;stroke:#539caf;" x="516.6" xlink:href="#m1e4d2ea9bc" y="736.257892"/>
     <use style="fill:#539caf;stroke:#539caf;" x="605.372727" xlink:href="#m1e4d2ea9bc" y="802.085499"/>
     <use style="fill:#539caf;stroke:#539caf;" x="694.145455" xlink:href="#m1e4d2ea9bc" y="854.266717"/>
     <use style="fill:#539caf;stroke:#539caf;" x="782.918182" xlink:href="#m1e4d2ea9bc" y="897.12"/>
     <use style="fill:#539caf;stroke:#539caf;" x="871.690909" xlink:href="#m1e4d2ea9bc" y="897.12"/>
    </g>
   </g>
   <g id="line2d_17">
    <path clip-path="url(#p369cad0de7)" d="M 161.509091 128.644752 
L 250.281818 306.253892 
L 339.054545 337.60195 
L 427.827273 376.158781 
L 516.6 416.240792 
L 605.372727 430.28984 
L 694.145455 469.527372 
L 782.918182 514.289351 
L 871.690909 531.462479 
" style="fill:none;stroke:#b65332;stroke-linecap:square;stroke-width:2;"/>
    <defs>
     <path d="M -6 -0 
L 6 6 
L 6 -6 
z
" id="ma37ade581d" style="stroke:#b65332;stroke-linejoin:miter;"/>
    </defs>
    <g clip-path="url(#p369cad0de7)">
     <use style="fill:#b65332;stroke:#b65332;stroke-linejoin:miter;" x="161.509091" xlink:href="#ma37ade581d" y="128.644752"/>
     <use style="fill:#b65332;stroke:#b65332;stroke-linejoin:miter;" x="250.281818" xlink:href="#ma37ade581d" y="306.253892"/>
     <use style="fill:#b65332;stroke:#b65332;stroke-linejoin:miter;" x="339.054545" xlink:href="#ma37ade581d" y="337.60195"/>
     <use style="fill:#b65332;stroke:#b65332;stroke-linejoin:miter;" x="427.827273" xlink:href="#ma37ade581d" y="376.158781"/>
     <use style="fill:#b65332;stroke:#b65332;stroke-linejoin:miter;" x="516.6" xlink:href="#ma37ade581d" y="416.240792"/>
     <use style="fill:#b65332;stroke:#b65332;stroke-linejoin:miter;" x="605.372727" xlink:href="#ma37ade581d" y="430.28984"/>
     <use style="fill:#b65332;stroke:#b65332;stroke-linejoin:miter;" x="694.145455" xlink:href="#ma37ade581d" y="469.527372"/>
     <use style="fill:#b65332;stroke:#b65332;stroke-linejoin:miter;" x="782.918182" xlink:href="#ma37ade581d" y="514.289351"/>
     <use style="fill:#b65332;stroke:#b65332;stroke-linejoin:miter;" x="871.690909" xlink:href="#ma37ade581d" y="531.462479"/>
    </g>
   </g>
   <g id="line2d_18">
    <path clip-path="url(#p369cad0de7)" d="M 161.509091 128.644752 
L 250.281818 302.011028 
L 339.054545 355.223397 
L 427.827273 418.2138 
L 516.6 484.433054 
L 605.372727 543.910581 
L 694.145455 613.082715 
L 782.918182 656.088556 
L 871.690909 712.577454 
" style="fill:none;stroke:#5be19a;stroke-linecap:square;stroke-width:2;"/>
    <defs>
     <path d="M 0 6 
C 1.591219 6 3.117479 5.367802 4.242641 4.242641 
C 5.367802 3.117479 6 1.591219 6 0 
C 6 -1.591219 5.367802 -3.117479 4.242641 -4.242641 
C 3.117479 -5.367802 1.591219 -6 0 -6 
C -1.591219 -6 -3.117479 -5.367802 -4.242641 -4.242641 
C -5.367802 -3.117479 -6 -1.591219 -6 0 
C -6 1.591219 -5.367802 3.117479 -4.242641 4.242641 
C -3.117479 5.367802 -1.591219 6 0 6 
z
" id="m4f30b75731" style="stroke:#5be19a;"/>
    </defs>
    <g clip-path="url(#p369cad0de7)">
     <use style="fill:#5be19a;stroke:#5be19a;" x="161.509091" xlink:href="#m4f30b75731" y="128.644752"/>
     <use style="fill:#5be19a;stroke:#5be19a;" x="250.281818" xlink:href="#m4f30b75731" y="302.011028"/>
     <use style="fill:#5be19a;stroke:#5be19a;" x="339.054545" xlink:href="#m4f30b75731" y="355.223397"/>
     <use style="fill:#5be19a;stroke:#5be19a;" x="427.827273" xlink:href="#m4f30b75731" y="418.2138"/>
     <use style="fill:#5be19a;stroke:#5be19a;" x="516.6" xlink:href="#m4f30b75731" y="484.433054"/>
     <use style="fill:#5be19a;stroke:#5be19a;" x="605.372727" xlink:href="#m4f30b75731" y="543.910581"/>
     <use style="fill:#5be19a;stroke:#5be19a;" x="694.145455" xlink:href="#m4f30b75731" y="613.082715"/>
     <use style="fill:#5be19a;stroke:#5be19a;" x="782.918182" xlink:href="#m4f30b75731" y="656.088556"/>
     <use style="fill:#5be19a;stroke:#5be19a;" x="871.690909" xlink:href="#m4f30b75731" y="712.577454"/>
    </g>
   </g>
   <g id="line2d_19">
    <path clip-path="url(#p369cad0de7)" d="M 161.509091 128.644752 
L 250.281818 307.274943 
L 339.054545 368.154151 
L 427.827273 438.999482 
L 516.6 504.404326 
L 605.372727 565.074233 
L 694.145455 625.949004 
L 782.918182 683.28474 
L 871.690909 737.988821 
" style="fill:none;stroke:#ece554;stroke-dasharray:7.4,3.2;stroke-dashoffset:0;stroke-width:2;"/>
    <defs>
     <path d="M -6 6 
L 6 6 
L 6 -6 
L -6 -6 
z
" id="m19a6a3312b" style="stroke:#ece554;stroke-linejoin:miter;"/>
    </defs>
    <g clip-path="url(#p369cad0de7)">
     <use style="fill:#ece554;stroke:#ece554;stroke-linejoin:miter;" x="161.509091" xlink:href="#m19a6a3312b" y="128.644752"/>
     <use style="fill:#ece554;stroke:#ece554;stroke-linejoin:miter;" x="250.281818" xlink:href="#m19a6a3312b" y="307.274943"/>
     <use style="fill:#ece554;stroke:#ece554;stroke-linejoin:miter;" x="339.054545" xlink:href="#m19a6a3312b" y="368.154151"/>
     <use style="fill:#ece554;stroke:#ece554;stroke-linejoin:miter;" x="427.827273" xlink:href="#m19a6a3312b" y="438.999482"/>
     <use style="fill:#ece554;stroke:#ece554;stroke-linejoin:miter;" x="516.6" xlink:href="#m19a6a3312b" y="504.404326"/>
     <use style="fill:#ece554;stroke:#ece554;stroke-linejoin:miter;" x="605.372727" xlink:href="#m19a6a3312b" y="565.074233"/>
     <use style="fill:#ece554;stroke:#ece554;stroke-linejoin:miter;" x="694.145455" xlink:href="#m19a6a3312b" y="625.949004"/>
     <use style="fill:#ece554;stroke:#ece554;stroke-linejoin:miter;" x="782.918182" xlink:href="#m19a6a3312b" y="683.28474"/>
     <use style="fill:#ece554;stroke:#ece554;stroke-linejoin:miter;" x="871.690909" xlink:href="#m19a6a3312b" y="737.988821"/>
    </g>
   </g>
   <g id="patch_3">
    <path d="M 126 897.12 
L 126 120.96 
" style="fill:none;stroke:#000000;stroke-linecap:square;stroke-linejoin:miter;stroke-width:0.8;"/>
   </g>
   <g id="patch_4">
    <path d="M 126 897.12 
L 907.2 897.12 
" style="fill:none;stroke:#000000;stroke-linecap:square;stroke-linejoin:miter;stroke-width:0.8;"/>
   </g>
   <g id="text_18">
    <!-- Impact missing on Effectiveness - Jaccard, k = 10 -->
    <defs>
     <path d="M 9.8125 72.90625 
L 19.671875 72.90625 
L 19.671875 5.078125 
Q 19.671875 -8.109375 14.671875 -14.0625 
Q 9.671875 -20.015625 -1.421875 -20.015625 
L -5.171875 -20.015625 
L -5.171875 -11.71875 
L -2.09375 -11.71875 
Q 4.4375 -11.71875 7.125 -8.046875 
Q 9.8125 -4.390625 9.8125 5.078125 
z
" id="DejaVuSans-74"/>
     <path d="M 11.71875 12.40625 
L 22.015625 12.40625 
L 22.015625 4 
L 14.015625 -11.625 
L 7.71875 -11.625 
L 11.71875 4 
z
" id="DejaVuSans-44"/>
     <path d="M 9.078125 75.984375 
L 18.109375 75.984375 
L 18.109375 31.109375 
L 44.921875 54.6875 
L 56.390625 54.6875 
L 27.390625 29.109375 
L 57.625 0 
L 45.90625 0 
L 18.109375 26.703125 
L 18.109375 0 
L 9.078125 0 
z
" id="DejaVuSans-107"/>
     <path d="M 10.59375 45.40625 
L 73.1875 45.40625 
L 73.1875 37.203125 
L 10.59375 37.203125 
z
M 10.59375 25.484375 
L 73.1875 25.484375 
L 73.1875 17.1875 
L 10.59375 17.1875 
z
" id="DejaVuSans-61"/>
    </defs>
    <g transform="translate(144.747656 114.720938)scale(0.3 -0.3)">
     <use xlink:href="#DejaVuSans-73"/>
     <use x="29.492188" xlink:href="#DejaVuSans-109"/>
     <use x="126.904297" xlink:href="#DejaVuSans-112"/>
     <use x="190.380859" xlink:href="#DejaVuSans-97"/>
     <use x="251.660156" xlink:href="#DejaVuSans-99"/>
     <use x="306.640625" xlink:href="#DejaVuSans-116"/>
     <use x="345.849609" xlink:href="#DejaVuSans-32"/>
     <use x="377.636719" xlink:href="#DejaVuSans-109"/>
     <use x="475.048828" xlink:href="#DejaVuSans-105"/>
     <use x="502.832031" xlink:href="#DejaVuSans-115"/>
     <use x="554.931641" xlink:href="#DejaVuSans-115"/>
     <use x="607.03125" xlink:href="#DejaVuSans-105"/>
     <use x="634.814453" xlink:href="#DejaVuSans-110"/>
     <use x="698.193359" xlink:href="#DejaVuSans-103"/>
     <use x="761.669922" xlink:href="#DejaVuSans-32"/>
     <use x="793.457031" xlink:href="#DejaVuSans-111"/>
     <use x="854.638672" xlink:href="#DejaVuSans-110"/>
     <use x="918.017578" xlink:href="#DejaVuSans-32"/>
     <use x="949.804688" xlink:href="#DejaVuSans-69"/>
     <use x="1012.988281" xlink:href="#DejaVuSans-102"/>
     <use x="1048.193359" xlink:href="#DejaVuSans-102"/>
     <use x="1083.398438" xlink:href="#DejaVuSans-101"/>
     <use x="1144.921875" xlink:href="#DejaVuSans-99"/>
     <use x="1199.902344" xlink:href="#DejaVuSans-116"/>
     <use x="1239.111328" xlink:href="#DejaVuSans-105"/>
     <use x="1266.894531" xlink:href="#DejaVuSans-118"/>
     <use x="1326.074219" xlink:href="#DejaVuSans-101"/>
     <use x="1387.597656" xlink:href="#DejaVuSans-110"/>
     <use x="1450.976562" xlink:href="#DejaVuSans-101"/>
     <use x="1512.5" xlink:href="#DejaVuSans-115"/>
     <use x="1564.599609" xlink:href="#DejaVuSans-115"/>
     <use x="1616.699219" xlink:href="#DejaVuSans-32"/>
     <use x="1648.486328" xlink:href="#DejaVuSans-45"/>
     <use x="1684.570312" xlink:href="#DejaVuSans-32"/>
     <use x="1716.357422" xlink:href="#DejaVuSans-74"/>
     <use x="1745.849609" xlink:href="#DejaVuSans-97"/>
     <use x="1807.128906" xlink:href="#DejaVuSans-99"/>
     <use x="1862.109375" xlink:href="#DejaVuSans-99"/>
     <use x="1917.089844" xlink:href="#DejaVuSans-97"/>
     <use x="1978.369141" xlink:href="#DejaVuSans-114"/>
     <use x="2019.466797" xlink:href="#DejaVuSans-100"/>
     <use x="2082.943359" xlink:href="#DejaVuSans-44"/>
     <use x="2114.730469" xlink:href="#DejaVuSans-32"/>
     <use x="2146.517578" xlink:href="#DejaVuSans-107"/>
     <use x="2204.427734" xlink:href="#DejaVuSans-32"/>
     <use x="2236.214844" xlink:href="#DejaVuSans-61"/>
     <use x="2320.003906" xlink:href="#DejaVuSans-32"/>
     <use x="2351.791016" xlink:href="#DejaVuSans-49"/>
     <use x="2415.414062" xlink:href="#DejaVuSans-48"/>
    </g>
   </g>
   <g id="legend_1">
    <g id="patch_5">
     <path d="M 360.348438 287.74125 
L 889.7 287.74125 
Q 894.7 287.74125 894.7 282.74125 
L 894.7 138.46 
Q 894.7 133.46 889.7 133.46 
L 360.348438 133.46 
Q 355.348438 133.46 355.348438 138.46 
L 355.348438 282.74125 
Q 355.348438 287.74125 360.348438 287.74125 
z
" style="fill:#ffffff;opacity:0.8;stroke:#cccccc;stroke-linejoin:miter;"/>
    </g>
    <g id="line2d_20">
     <path d="M 365.348438 153.706094 
L 415.348438 153.706094 
" style="fill:none;stroke:#539caf;stroke-dasharray:12.8,3.2,2,3.2;stroke-dashoffset:0;stroke-width:2;"/>
    </g>
    <g id="line2d_21">
     <g>
      <use style="fill:#539caf;stroke:#539caf;" x="390.348438" xlink:href="#m1e4d2ea9bc" y="153.706094"/>
     </g>
    </g>
    <g id="text_19">
     <!-- Drop rows contain NaN -->
     <defs>
      <path d="M 19.671875 64.796875 
L 19.671875 8.109375 
L 31.59375 8.109375 
Q 46.6875 8.109375 53.6875 14.9375 
Q 60.6875 21.78125 60.6875 36.53125 
Q 60.6875 51.171875 53.6875 57.984375 
Q 46.6875 64.796875 31.59375 64.796875 
z
M 9.8125 72.90625 
L 30.078125 72.90625 
Q 51.265625 72.90625 61.171875 64.09375 
Q 71.09375 55.28125 71.09375 36.53125 
Q 71.09375 17.671875 61.125 8.828125 
Q 51.171875 0 30.078125 0 
L 9.8125 0 
z
" id="DejaVuSans-68"/>
      <path d="M 4.203125 54.6875 
L 13.1875 54.6875 
L 24.421875 12.015625 
L 35.59375 54.6875 
L 46.1875 54.6875 
L 57.421875 12.015625 
L 68.609375 54.6875 
L 77.59375 54.6875 
L 63.28125 0 
L 52.6875 0 
L 40.921875 44.828125 
L 29.109375 0 
L 18.5 0 
z
" id="DejaVuSans-119"/>
      <path d="M 9.8125 72.90625 
L 23.09375 72.90625 
L 55.421875 11.921875 
L 55.421875 72.90625 
L 64.984375 72.90625 
L 64.984375 0 
L 51.703125 0 
L 19.390625 60.984375 
L 19.390625 0 
L 9.8125 0 
z
" id="DejaVuSans-78"/>
     </defs>
     <g transform="translate(435.348438 162.456094)scale(0.25 -0.25)">
      <use xlink:href="#DejaVuSans-68"/>
      <use x="77.001953" xlink:href="#DejaVuSans-114"/>
      <use x="118.083984" xlink:href="#DejaVuSans-111"/>
      <use x="179.265625" xlink:href="#DejaVuSans-112"/>
      <use x="242.742188" xlink:href="#DejaVuSans-32"/>
      <use x="274.529297" xlink:href="#DejaVuSans-114"/>
      <use x="315.611328" xlink:href="#DejaVuSans-111"/>
      <use x="376.792969" xlink:href="#DejaVuSans-119"/>
      <use x="458.580078" xlink:href="#DejaVuSans-115"/>
      <use x="510.679688" xlink:href="#DejaVuSans-32"/>
      <use x="542.466797" xlink:href="#DejaVuSans-99"/>
      <use x="597.447266" xlink:href="#DejaVuSans-111"/>
      <use x="658.628906" xlink:href="#DejaVuSans-110"/>
      <use x="722.007812" xlink:href="#DejaVuSans-116"/>
      <use x="761.216797" xlink:href="#DejaVuSans-97"/>
      <use x="822.496094" xlink:href="#DejaVuSans-105"/>
      <use x="850.279297" xlink:href="#DejaVuSans-110"/>
      <use x="913.658203" xlink:href="#DejaVuSans-32"/>
      <use x="945.445312" xlink:href="#DejaVuSans-78"/>
      <use x="1020.25" xlink:href="#DejaVuSans-97"/>
      <use x="1081.529297" xlink:href="#DejaVuSans-78"/>
     </g>
    </g>
    <g id="line2d_22">
     <path d="M 365.348438 190.401406 
L 415.348438 190.401406 
" style="fill:none;stroke:#b65332;stroke-linecap:square;stroke-width:2;"/>
    </g>
    <g id="line2d_23">
     <g>
      <use style="fill:#b65332;stroke:#b65332;stroke-linejoin:miter;" x="390.348438" xlink:href="#ma37ade581d" y="190.401406"/>
     </g>
    </g>
    <g id="text_20">
     <!-- Ignore NaN cells -->
     <g transform="translate(435.348438 199.151406)scale(0.25 -0.25)">
      <use xlink:href="#DejaVuSans-73"/>
      <use x="29.492188" xlink:href="#DejaVuSans-103"/>
      <use x="92.96875" xlink:href="#DejaVuSans-110"/>
      <use x="156.347656" xlink:href="#DejaVuSans-111"/>
      <use x="217.529297" xlink:href="#DejaVuSans-114"/>
      <use x="258.611328" xlink:href="#DejaVuSans-101"/>
      <use x="320.134766" xlink:href="#DejaVuSans-32"/>
      <use x="351.921875" xlink:href="#DejaVuSans-78"/>
      <use x="426.726562" xlink:href="#DejaVuSans-97"/>
      <use x="488.005859" xlink:href="#DejaVuSans-78"/>
      <use x="562.810547" xlink:href="#DejaVuSans-32"/>
      <use x="594.597656" xlink:href="#DejaVuSans-99"/>
      <use x="649.578125" xlink:href="#DejaVuSans-101"/>
      <use x="711.101562" xlink:href="#DejaVuSans-108"/>
      <use x="738.884766" xlink:href="#DejaVuSans-108"/>
      <use x="766.667969" xlink:href="#DejaVuSans-115"/>
     </g>
    </g>
    <g id="line2d_24">
     <path d="M 365.348438 227.096719 
L 415.348438 227.096719 
" style="fill:none;stroke:#5be19a;stroke-linecap:square;stroke-width:2;"/>
    </g>
    <g id="line2d_25">
     <g>
      <use style="fill:#5be19a;stroke:#5be19a;" x="390.348438" xlink:href="#m4f30b75731" y="227.096719"/>
     </g>
    </g>
    <g id="text_21">
     <!-- Median imputation + most frequent -->
     <defs>
      <path d="M 8.5 21.578125 
L 8.5 54.6875 
L 17.484375 54.6875 
L 17.484375 21.921875 
Q 17.484375 14.15625 20.5 10.265625 
Q 23.53125 6.390625 29.59375 6.390625 
Q 36.859375 6.390625 41.078125 11.03125 
Q 45.3125 15.671875 45.3125 23.6875 
L 45.3125 54.6875 
L 54.296875 54.6875 
L 54.296875 0 
L 45.3125 0 
L 45.3125 8.40625 
Q 42.046875 3.421875 37.71875 1 
Q 33.40625 -1.421875 27.6875 -1.421875 
Q 18.265625 -1.421875 13.375 4.4375 
Q 8.5 10.296875 8.5 21.578125 
z
M 31.109375 56 
z
" id="DejaVuSans-117"/>
      <path d="M 46 62.703125 
L 46 35.5 
L 73.1875 35.5 
L 73.1875 27.203125 
L 46 27.203125 
L 46 0 
L 37.796875 0 
L 37.796875 27.203125 
L 10.59375 27.203125 
L 10.59375 35.5 
L 37.796875 35.5 
L 37.796875 62.703125 
z
" id="DejaVuSans-43"/>
      <path d="M 14.796875 27.296875 
Q 14.796875 17.390625 18.875 11.75 
Q 22.953125 6.109375 30.078125 6.109375 
Q 37.203125 6.109375 41.296875 11.75 
Q 45.40625 17.390625 45.40625 27.296875 
Q 45.40625 37.203125 41.296875 42.84375 
Q 37.203125 48.484375 30.078125 48.484375 
Q 22.953125 48.484375 18.875 42.84375 
Q 14.796875 37.203125 14.796875 27.296875 
z
M 45.40625 8.203125 
Q 42.578125 3.328125 38.25 0.953125 
Q 33.9375 -1.421875 27.875 -1.421875 
Q 17.96875 -1.421875 11.734375 6.484375 
Q 5.515625 14.40625 5.515625 27.296875 
Q 5.515625 40.1875 11.734375 48.09375 
Q 17.96875 56 27.875 56 
Q 33.9375 56 38.25 53.625 
Q 42.578125 51.265625 45.40625 46.390625 
L 45.40625 54.6875 
L 54.390625 54.6875 
L 54.390625 -20.796875 
L 45.40625 -20.796875 
z
" id="DejaVuSans-113"/>
     </defs>
     <g transform="translate(435.348438 235.846719)scale(0.25 -0.25)">
      <use xlink:href="#DejaVuSans-77"/>
      <use x="86.279297" xlink:href="#DejaVuSans-101"/>
      <use x="147.802734" xlink:href="#DejaVuSans-100"/>
      <use x="211.279297" xlink:href="#DejaVuSans-105"/>
      <use x="239.0625" xlink:href="#DejaVuSans-97"/>
      <use x="300.341797" xlink:href="#DejaVuSans-110"/>
      <use x="363.720703" xlink:href="#DejaVuSans-32"/>
      <use x="395.507812" xlink:href="#DejaVuSans-105"/>
      <use x="423.291016" xlink:href="#DejaVuSans-109"/>
      <use x="520.703125" xlink:href="#DejaVuSans-112"/>
      <use x="584.179688" xlink:href="#DejaVuSans-117"/>
      <use x="647.558594" xlink:href="#DejaVuSans-116"/>
      <use x="686.767578" xlink:href="#DejaVuSans-97"/>
      <use x="748.046875" xlink:href="#DejaVuSans-116"/>
      <use x="787.255859" xlink:href="#DejaVuSans-105"/>
      <use x="815.039062" xlink:href="#DejaVuSans-111"/>
      <use x="876.220703" xlink:href="#DejaVuSans-110"/>
      <use x="939.599609" xlink:href="#DejaVuSans-32"/>
      <use x="971.386719" xlink:href="#DejaVuSans-43"/>
      <use x="1055.175781" xlink:href="#DejaVuSans-32"/>
      <use x="1086.962891" xlink:href="#DejaVuSans-109"/>
      <use x="1184.375" xlink:href="#DejaVuSans-111"/>
      <use x="1245.556641" xlink:href="#DejaVuSans-115"/>
      <use x="1297.65625" xlink:href="#DejaVuSans-116"/>
      <use x="1336.865234" xlink:href="#DejaVuSans-32"/>
      <use x="1368.652344" xlink:href="#DejaVuSans-102"/>
      <use x="1403.857422" xlink:href="#DejaVuSans-114"/>
      <use x="1444.939453" xlink:href="#DejaVuSans-101"/>
      <use x="1506.462891" xlink:href="#DejaVuSans-113"/>
      <use x="1569.939453" xlink:href="#DejaVuSans-117"/>
      <use x="1633.318359" xlink:href="#DejaVuSans-101"/>
      <use x="1694.841797" xlink:href="#DejaVuSans-110"/>
      <use x="1758.220703" xlink:href="#DejaVuSans-116"/>
     </g>
    </g>
    <g id="line2d_26">
     <path d="M 365.348438 263.792031 
L 415.348438 263.792031 
" style="fill:none;stroke:#ece554;stroke-dasharray:7.4,3.2;stroke-dashoffset:0;stroke-width:2;"/>
    </g>
    <g id="line2d_27">
     <g>
      <use style="fill:#ece554;stroke:#ece554;stroke-linejoin:miter;" x="390.348438" xlink:href="#m19a6a3312b" y="263.792031"/>
     </g>
    </g>
    <g id="text_22">
     <!-- Mode imputation + most frequent -->
     <g transform="translate(435.348438 272.542031)scale(0.25 -0.25)">
      <use xlink:href="#DejaVuSans-77"/>
      <use x="86.279297" xlink:href="#DejaVuSans-111"/>
      <use x="147.460938" xlink:href="#DejaVuSans-100"/>
      <use x="210.9375" xlink:href="#DejaVuSans-101"/>
      <use x="272.460938" xlink:href="#DejaVuSans-32"/>
      <use x="304.248047" xlink:href="#DejaVuSans-105"/>
      <use x="332.03125" xlink:href="#DejaVuSans-109"/>
      <use x="429.443359" xlink:href="#DejaVuSans-112"/>
      <use x="492.919922" xlink:href="#DejaVuSans-117"/>
      <use x="556.298828" xlink:href="#DejaVuSans-116"/>
      <use x="595.507812" xlink:href="#DejaVuSans-97"/>
      <use x="656.787109" xlink:href="#DejaVuSans-116"/>
      <use x="695.996094" xlink:href="#DejaVuSans-105"/>
      <use x="723.779297" xlink:href="#DejaVuSans-111"/>
      <use x="784.960938" xlink:href="#DejaVuSans-110"/>
      <use x="848.339844" xlink:href="#DejaVuSans-32"/>
      <use x="880.126953" xlink:href="#DejaVuSans-43"/>
      <use x="963.916016" xlink:href="#DejaVuSans-32"/>
      <use x="995.703125" xlink:href="#DejaVuSans-109"/>
      <use x="1093.115234" xlink:href="#DejaVuSans-111"/>
      <use x="1154.296875" xlink:href="#DejaVuSans-115"/>
      <use x="1206.396484" xlink:href="#DejaVuSans-116"/>
      <use x="1245.605469" xlink:href="#DejaVuSans-32"/>
      <use x="1277.392578" xlink:href="#DejaVuSans-102"/>
      <use x="1312.597656" xlink:href="#DejaVuSans-114"/>
      <use x="1353.679688" xlink:href="#DejaVuSans-101"/>
      <use x="1415.203125" xlink:href="#DejaVuSans-113"/>
      <use x="1478.679688" xlink:href="#DejaVuSans-117"/>
      <use x="1542.058594" xlink:href="#DejaVuSans-101"/>
      <use x="1603.582031" xlink:href="#DejaVuSans-110"/>
      <use x="1666.960938" xlink:href="#DejaVuSans-116"/>
     </g>
    </g>
   </g>
  </g>
 </g>
 <defs>
  <clipPath id="p369cad0de7">
   <rect height="776.16" width="781.2" x="126" y="120.96"/>
  </clipPath>
 </defs>
</svg>
